<svg width="246" height="131" viewBox="0 0 246 131" fill="none" xmlns="http://www.w3.org/2000/svg">
<path d="M19.747 4.5L20.4743 0.545455H22.8107L20.7834 4.5H19.747ZM32.4814 4.5L33.2087 0.545455H35.545L33.5178 4.5H32.4814ZM38.8486 4.5L39.5759 0.545455H41.9122L39.8849 4.5H38.8486ZM51.583 4.5L52.3102 0.545455H54.6466L52.6193 4.5H51.583ZM20.6561 13.8182V4.72727H21.9197V13.8182H20.6561ZM33.3905 13.8182V4.72727H34.6541V13.8182H33.3905ZM39.7577 13.8182V4.72727H41.0213V13.8182H39.7577ZM52.492 13.8182V4.72727H53.7557V13.8182H52.492ZM83.4189 13.5L84.1462 9.54545H86.4825L84.4553 13.5H83.4189ZM88.8588 13.8182L92.4952 4.72727H93.7861L90.1497 13.8182H88.8588ZM107.815 13.8182V12.4636H113.033V13.8182H107.815ZM114.182 13.8182V12.4636H119.4V13.8182H114.182ZM120.549 13.8182V12.4636H125.767V13.8182H120.549ZM126.916 13.8182V12.4636H132.135V13.8182H126.916ZM133.284 13.8182V12.4636H138.502V13.8182H133.284ZM156.167 13.8091L152.531 4.71818L153.822 4.72727L157.458 13.8182L156.167 13.8091ZM161.371 12.0909C160.989 12.0909 160.683 12.0091 160.452 11.8455C160.222 11.6758 160.107 11.4364 160.107 11.1273V10.5C160.107 10.1848 160.222 9.94242 160.452 9.77273C160.683 9.60303 160.989 9.51818 161.371 9.51818C161.746 9.51818 162.049 9.60303 162.28 9.77273C162.51 9.94242 162.625 10.1848 162.625 10.5V11.1273C162.625 11.4364 162.507 11.6758 162.271 11.8455C162.034 12.0091 161.734 12.0909 161.371 12.0909ZM22.4561 22.8091L18.8197 13.7182L20.1107 13.7273L23.747 22.8182L22.4561 22.8091ZM25.0415 22.8182V21.4636H30.2597V22.8182H25.0415ZM33.3905 22.8182V13.7273H34.6541V22.8182H33.3905ZM39.7577 22.8182V13.7273H41.0213V22.8182H39.7577ZM44.143 22.8182V21.4636H49.3612V22.8182H44.143ZM50.6557 22.8182L54.292 13.7273H55.583L51.9466 22.8182H50.6557ZM84.328 22.8182V13.7273H85.5916V22.8182H84.328ZM90.6952 22.8182V13.7273H91.9588V22.8182H90.6952ZM95.0805 22.8182V21.4636H100.299V22.8182H95.0805ZM101.593 22.8182L105.23 13.7273H106.52L102.884 22.8182H101.593ZM143.433 22.8091L139.796 13.7182L141.087 13.7273L144.724 22.8182L143.433 22.8091ZM146.018 22.8182V21.4636H151.236V22.8182H146.018ZM154.367 22.8182V13.7273H155.631V22.8182H154.367ZM160.734 22.8182V13.7273H161.998V22.8182H160.734ZM33.3905 31.8182V22.7273H34.6541V31.8182H33.3905ZM39.7577 31.8182V22.7273H41.0213V31.8182H39.7577ZM92.4952 31.8091L88.8588 22.7182L90.1497 22.7273L93.7861 31.8182L92.4952 31.8091ZM95.0805 31.8182V30.4636H100.299V31.8182H95.0805ZM103.43 31.8182V22.7273H104.693V31.8182H103.43ZM116.8 30.0909C116.418 30.0909 116.112 30.0091 115.882 29.8455C115.652 29.6758 115.537 29.4364 115.537 29.1273V28.5C115.537 28.1848 115.652 27.9424 115.882 27.7727C116.112 27.603 116.418 27.5182 116.8 27.5182C117.176 27.5182 117.479 27.603 117.709 27.7727C117.94 27.9424 118.055 28.1848 118.055 28.5V29.1273C118.055 29.4364 117.937 29.6758 117.7 29.8455C117.464 30.0091 117.164 30.0909 116.8 30.0909ZM129.535 30.0909C129.153 30.0909 128.847 30.0091 128.616 29.8455C128.386 29.6758 128.271 29.4364 128.271 29.1273V28.5C128.271 28.1848 128.386 27.9424 128.616 27.7727C128.847 27.603 129.153 27.5182 129.535 27.5182C129.91 27.5182 130.213 27.603 130.444 27.7727C130.674 27.9424 130.789 28.1848 130.789 28.5V29.1273C130.789 29.4364 130.671 29.6758 130.435 29.8455C130.198 30.0091 129.898 30.0909 129.535 30.0909ZM141.633 31.8182V22.7273H142.896V31.8182H141.633ZM146.018 31.8182V30.4636H151.236V31.8182H146.018ZM152.531 31.8182L156.167 22.7273H157.458L153.822 31.8182H152.531ZM33.3905 40.8182V31.7273H34.6541V40.8182H33.3905ZM39.7577 40.8182V31.7273H41.0213V40.8182H39.7577ZM103.43 40.8182V31.7273H104.693V40.8182H103.43ZM121.022 39V31.7273H122.567V37.8H125.749V39H121.022ZM141.633 40.8182V31.7273H142.896V40.8182H141.633ZM26.1142 49.5L26.8415 45.5455H29.1778L27.1506 49.5H26.1142ZM33.3905 49.8182V40.7273H34.6541V49.8182H33.3905ZM39.7577 49.8182V40.7273H41.0213V49.8182H39.7577ZM103.43 49.8182V40.7273H104.693V49.8182H103.43ZM110.824 44.6818L108.615 40.7273H110.96L111.86 44.6818H110.824ZM114.182 44.0636V42.7727H119.4V44.0636H114.182ZM114.182 46.8636V45.5727H119.4V46.8636H114.182ZM120.549 44.0636V42.7727H125.767V44.0636H120.549ZM120.549 46.8636V45.5727H125.767V46.8636H120.549ZM126.916 44.0636V42.7727H132.135V44.0636H126.916ZM126.916 46.8636V45.5727H132.135V46.8636H126.916ZM135.22 44.6818L134.911 40.7273H136.875L136.565 44.6818H135.22ZM141.633 49.8182V40.7273H142.896V49.8182H141.633ZM27.0233 58.8182V49.7273H28.2869V58.8182H27.0233ZM31.6814 56.9455V55.7636L35.5359 53.8182L31.6814 51.8727V50.6909L36.3541 53.0455V54.5909L31.6814 56.9455ZM39.7577 58.8182V49.7273H41.0213V58.8182H39.7577ZM82.3462 58.8182V57.4636H87.5643V58.8182H82.3462ZM88.7134 58.8182V57.4636H93.9315V58.8182H88.7134ZM95.0805 58.8182V57.4636H100.299V58.8182H95.0805ZM104.457 53.6818L102.248 49.7273H104.593L105.493 53.6818H104.457ZM108.088 56.9455V55.7636L111.942 53.8182L108.088 51.8727V50.6909L112.76 53.0455V54.5909L108.088 56.9455ZM126.916 54.4636V53.1091H132.135V54.4636H126.916ZM138.229 56.9455L133.556 54.5909V53.0455L138.229 50.6909V51.9364L134.502 53.8182L138.229 55.7V56.9455ZM141.587 53.6818L141.278 49.7273H143.242L142.933 53.6818H141.587ZM146.018 58.8182V57.4636H151.236V58.8182H146.018ZM152.385 58.8182V57.4636H157.603V58.8182H152.385ZM158.752 58.8182V57.4636H163.971V58.8182H158.752ZM27.0233 67.8182V58.7273H28.2869V67.8182H27.0233ZM31.6814 65.9455V64.7636L35.5359 62.8182L31.6814 60.8727V59.6909L36.3541 62.0455V63.5909L31.6814 65.9455ZM39.7577 67.8182V58.7273H41.0213V67.8182H39.7577ZM47.9249 67.8091L44.2885 58.7182L45.5794 58.7273L49.2158 67.8182L47.9249 67.8091ZM76.1244 67.8182L79.7608 58.7273H81.0517L77.4153 67.8182H76.1244ZM168.901 67.8091L165.265 58.7182L166.556 58.7273L170.192 67.8182L168.901 67.8091ZM28.8233 76.8091L25.1869 67.7182L26.4778 67.7273L30.1142 76.8182L28.8233 76.8091ZM31.6814 74.9455V73.7636L35.5359 71.8182L31.6814 69.8727V68.6909L36.3541 71.0455V72.5909L31.6814 74.9455ZM39.7577 76.8182V67.7273H41.0213V76.8182H39.7577ZM54.292 76.8091L50.6557 67.7182L51.9466 67.7273L55.583 76.8182L54.292 76.8091ZM69.7572 76.8182L73.3936 67.7273H74.6845L71.0482 76.8182H69.7572ZM89.7861 76.5L90.5134 72.5455H92.8497L90.8224 76.5H89.7861ZM123.167 75.0909C122.786 75.0909 122.48 75.0091 122.249 74.8455C122.019 74.6758 121.904 74.4364 121.904 74.1273V73.5C121.904 73.1848 122.019 72.9424 122.249 72.7727C122.48 72.603 122.786 72.5182 123.167 72.5182C123.543 72.5182 123.846 72.603 124.077 72.7727C124.307 72.9424 124.422 73.1848 124.422 73.5V74.1273C124.422 74.4364 124.304 74.6758 124.067 74.8455C123.831 75.0091 123.531 75.0909 123.167 75.0909ZM155.003 75.0909C154.622 75.0909 154.316 75.0091 154.085 74.8455C153.855 74.6758 153.74 74.4364 153.74 74.1273V73.5C153.74 73.1848 153.855 72.9424 154.085 72.7727C154.316 72.603 154.622 72.5182 155.003 72.5182C155.379 72.5182 155.682 72.603 155.912 72.7727C156.143 72.9424 156.258 73.1848 156.258 73.5V74.1273C156.258 74.4364 156.14 74.6758 155.903 74.8455C155.667 75.0091 155.367 75.0909 155.003 75.0909ZM173.469 76.8182V67.7273H174.732V76.8182H173.469ZM33.3905 85.8182V76.7273H34.6541V85.8182H33.3905ZM39.7577 85.8182V76.7273H41.0213V85.8182H39.7577ZM60.6592 85.8091L57.0229 76.7182L58.3138 76.7273L61.9501 85.8182L60.6592 85.8091ZM63.3901 85.8182L67.0264 76.7273H68.3173L64.681 85.8182H63.3901ZM82.4916 85.8182L86.128 76.7273H87.4189L83.7825 85.8182H82.4916ZM90.6952 85.8182V76.7273H91.9588V85.8182H90.6952ZM104.066 84.0909C103.684 84.0909 103.378 84.0091 103.148 83.8455C102.917 83.6758 102.802 83.4364 102.802 83.1273V82.5C102.802 82.1848 102.917 81.9424 103.148 81.7727C103.378 81.603 103.684 81.5182 104.066 81.5182C104.442 81.5182 104.745 81.603 104.975 81.7727C105.205 81.9424 105.32 82.1848 105.32 82.5V83.1273C105.32 83.4364 105.202 83.6758 104.966 83.8455C104.73 84.0091 104.43 84.0909 104.066 84.0909ZM122.531 85.8182V76.7273H123.795V85.8182H122.531ZM142.269 84.0909C141.887 84.0909 141.581 84.0091 141.351 83.8455C141.121 83.6758 141.005 83.4364 141.005 83.1273V82.5C141.005 82.1848 141.121 81.9424 141.351 81.7727C141.581 81.603 141.887 81.5182 142.269 81.5182C142.645 81.5182 142.948 81.603 143.178 81.7727C143.408 81.9424 143.524 82.1848 143.524 82.5V83.1273C143.524 83.4364 143.405 83.6758 143.169 83.8455C142.933 84.0091 142.633 84.0909 142.269 84.0909ZM154.367 85.8182V76.7273H155.631V85.8182H154.367ZM173.469 85.8182V76.7273H174.732V85.8182H173.469ZM33.3905 94.8182V85.7273H34.6541V94.8182H33.3905ZM39.7577 94.8182V85.7273H41.0213V94.8182H39.7577ZM47.9249 94.8091L44.2885 85.7182L45.5794 85.7273L49.2158 94.8182L47.9249 94.8091ZM66.2537 89.6818L64.0446 85.7273H66.3901L67.2901 89.6818H66.2537ZM76.1244 94.8182L79.7608 85.7273H81.0517L77.4153 94.8182H76.1244ZM90.6952 94.8182V85.7273H91.9588V94.8182H90.6952ZM101.448 94.8182V93.4636H106.666V94.8182H101.448ZM107.815 94.8182V93.4636H113.033V94.8182H107.815ZM114.182 94.8182V93.4636H119.4V94.8182H114.182ZM122.531 94.8182V85.7273H123.795V94.8182H122.531ZM126.916 94.8182V93.4636H132.135V94.8182H126.916ZM133.284 94.8182V93.4636H138.502V94.8182H133.284ZM139.651 94.8182V93.4636H144.869V94.8182H139.651ZM154.367 94.8182V85.7273H155.631V94.8182H154.367ZM173.469 94.8182V85.7273H174.732V94.8182H173.469ZM214.308 94.9091C212.981 94.6848 212.032 94.1394 211.463 93.2727C210.899 92.4121 210.617 91.4121 210.617 90.2727C210.617 89.1636 210.899 88.1697 211.463 87.2909C212.032 86.4121 212.981 85.8606 214.308 85.6364L214.463 86.6727C213.584 86.897 212.981 87.3212 212.654 87.9455C212.326 88.5636 212.163 89.3394 212.163 90.2727C212.163 91.2061 212.326 91.9758 212.654 92.5818C212.981 93.1818 213.584 93.5939 214.463 93.8182L214.308 94.9091ZM16.9253 103.909C15.598 103.685 14.6495 103.139 14.0798 102.273C13.5162 101.412 13.2344 100.412 13.2344 99.2727C13.2344 98.1636 13.5162 97.1697 14.0798 96.2909C14.6495 95.4121 15.598 94.8606 16.9253 94.6364L17.0798 95.6727C16.201 95.897 15.598 96.3212 15.2707 96.9455C14.9435 97.5636 14.7798 98.3394 14.7798 99.2727C14.7798 100.206 14.9435 100.976 15.2707 101.582C15.598 102.182 16.201 102.594 17.0798 102.818L16.9253 103.909ZM23.2925 103.909C21.9652 103.685 21.0167 103.139 20.447 102.273C19.8834 101.412 19.6016 100.412 19.6016 99.2727C19.6016 98.1636 19.8834 97.1697 20.447 96.2909C21.0167 95.4121 21.9652 94.8606 23.2925 94.6364L23.447 95.6727C22.5682 95.897 21.9652 96.3212 21.6379 96.9455C21.3107 97.5636 21.147 98.3394 21.147 99.2727C21.147 100.206 21.3107 100.976 21.6379 101.582C21.9652 102.182 22.5682 102.594 23.447 102.818L23.2925 103.909ZM33.3905 103.818V94.7273H34.6541V103.818H33.3905ZM39.7577 103.818V94.7273H41.0213V103.818H39.7577ZM53.5193 98.6818L51.3102 94.7273H53.6557L54.5557 98.6818H53.5193ZM56.8774 99.4636V98.1091H62.0956V99.4636H56.8774ZM63.2446 99.4636V98.1091H68.4628V99.4636H63.2446ZM71.5482 98.6818L71.2391 94.7273H73.2027L72.8936 98.6818H71.5482ZM90.6952 103.818V94.7273H91.9588V103.818H90.6952ZM101.448 103.818V102.464H106.666V103.818H101.448ZM107.815 103.818V102.464H113.033V103.818H107.815ZM114.182 103.818V102.464H119.4V103.818H114.182ZM120.549 103.818V102.464H125.767V103.818H120.549ZM126.916 103.818V102.464H132.135V103.818H126.916ZM133.284 103.818V102.464H138.502V103.818H133.284ZM139.651 103.818V102.464H144.869V103.818H139.651ZM154.367 103.818V94.7273H155.631V103.818H154.367ZM173.469 103.818V94.7273H174.732V103.818H173.469ZM210.29 103.909L210.135 102.818C211.014 102.594 211.617 102.173 211.944 101.555C212.272 100.936 212.435 100.176 212.435 99.2727C212.435 98.4061 212.272 97.6455 211.944 96.9909C211.617 96.3364 211.014 95.897 210.135 95.6727L210.29 94.6364C211.617 94.8606 212.563 95.4121 213.126 96.2909C213.696 97.1697 213.981 98.1636 213.981 99.2727C213.981 100.412 213.696 101.412 213.126 102.273C212.563 103.139 211.617 103.685 210.29 103.909ZM216.657 103.909L216.503 102.818C217.381 102.594 217.984 102.173 218.312 101.555C218.639 100.936 218.803 100.176 218.803 99.2727C218.803 98.4061 218.639 97.6455 218.312 96.9909C217.984 96.3364 217.381 95.897 216.503 95.6727L216.657 94.6364C217.984 94.8606 218.93 95.4121 219.493 96.2909C220.063 97.1697 220.348 98.1636 220.348 99.2727C220.348 100.412 220.063 101.412 219.493 102.273C218.93 103.139 217.984 103.685 216.657 103.909ZM239.777 103.909C238.45 103.685 237.501 103.139 236.931 102.273C236.368 101.412 236.086 100.412 236.086 99.2727C236.086 98.1636 236.368 97.1697 236.931 96.2909C237.501 95.4121 238.45 94.8606 239.777 94.6364L239.931 95.6727C239.053 95.897 238.45 96.3212 238.122 96.9455C237.795 97.5636 237.631 98.3394 237.631 99.2727C237.631 100.206 237.795 100.976 238.122 101.582C238.45 102.182 239.053 102.594 239.931 102.818L239.777 103.909ZM4.19091 112.909C2.86364 112.685 1.91515 112.139 1.34545 111.273C0.781818 110.412 0.5 109.412 0.5 108.273C0.5 107.164 0.781818 106.17 1.34545 105.291C1.91515 104.412 2.86364 103.861 4.19091 103.636L4.34545 104.673C3.46667 104.897 2.86364 105.321 2.53636 105.945C2.20909 106.564 2.04545 107.339 2.04545 108.273C2.04545 109.206 2.20909 109.976 2.53636 110.582C2.86364 111.182 3.46667 111.594 4.34545 111.818L4.19091 112.909ZM19.2743 112.909L19.1197 111.818C19.9985 111.594 20.6016 111.173 20.9288 110.555C21.2561 109.936 21.4197 109.176 21.4197 108.273C21.4197 107.406 21.2561 106.645 20.9288 105.991C20.6016 105.336 19.9985 104.897 19.1197 104.673L19.2743 103.636C20.6016 103.861 21.547 104.412 22.1107 105.291C22.6804 106.17 22.9652 107.164 22.9652 108.273C22.9652 109.412 22.6804 110.412 22.1107 111.273C21.547 112.139 20.6016 112.685 19.2743 112.909ZM28.8233 112.809L25.1869 103.718L26.4778 103.727L30.1142 112.818L28.8233 112.809ZM33.3905 112.818V103.727H34.6541V112.818H33.3905ZM39.7577 112.818V103.727H41.0213V112.818H39.7577ZM55.1284 112.909C53.8011 112.685 52.8527 112.139 52.283 111.273C51.7193 110.412 51.4375 109.412 51.4375 108.273C51.4375 107.164 51.7193 106.17 52.283 105.291C52.8527 104.412 53.8011 103.861 55.1284 103.636L55.283 104.673C54.4042 104.897 53.8011 105.321 53.4739 105.945C53.1466 106.564 52.983 107.339 52.983 108.273C52.983 109.206 53.1466 109.976 53.4739 110.582C53.8011 111.182 54.4042 111.594 55.283 111.818L55.1284 112.909ZM70.2118 112.909L70.0572 111.818C70.936 111.594 71.5391 111.173 71.8663 110.555C72.1936 109.936 72.3572 109.176 72.3572 108.273C72.3572 107.406 72.1936 106.645 71.8663 105.991C71.5391 105.336 70.936 104.897 70.0572 104.673L70.2118 103.636C71.5391 103.861 72.4845 104.412 73.0482 105.291C73.6179 106.17 73.9027 107.164 73.9027 108.273C73.9027 109.412 73.6179 110.412 73.0482 111.273C72.4845 112.139 71.5391 112.685 70.2118 112.909ZM79.7608 112.809L76.1244 103.718L77.4153 103.727L81.0517 112.818L79.7608 112.809ZM90.6952 112.818V103.727H91.9588V112.818H90.6952ZM101.448 108.464V107.109H106.666V108.464H101.448ZM114.182 108.464V107.109H119.4V108.464H114.182ZM120.549 108.464V107.109H125.767V108.464H120.549ZM126.916 108.464V107.109H132.135V108.464H126.916ZM139.651 108.464V107.109H144.869V108.464H139.651ZM154.367 112.818V103.727H155.631V112.818H154.367ZM165.12 108.464V107.109H170.338V108.464H165.12ZM173.469 112.818V103.727H174.732V112.818H173.469ZM188.839 112.909C187.512 112.685 186.564 112.139 185.994 111.273C185.43 110.412 185.148 109.412 185.148 108.273C185.148 107.164 185.43 106.17 185.994 105.291C186.564 104.412 187.512 103.861 188.839 103.636L188.994 104.673C188.115 104.897 187.512 105.321 187.185 105.945C186.858 106.564 186.694 107.339 186.694 108.273C186.694 109.206 186.858 109.976 187.185 110.582C187.512 111.182 188.115 111.594 188.994 111.818L188.839 112.909ZM207.941 112.909C206.614 112.685 205.665 112.139 205.095 111.273C204.532 110.412 204.25 109.412 204.25 108.273C204.25 107.164 204.532 106.17 205.095 105.291C205.665 104.412 206.614 103.861 207.941 103.636L208.095 104.673C207.217 104.897 206.614 105.321 206.286 105.945C205.959 106.564 205.795 107.339 205.795 108.273C205.795 109.206 205.959 109.976 206.286 110.582C206.614 111.182 207.217 111.594 208.095 111.818L207.941 112.909ZM219.839 112.809L216.203 103.718L217.493 103.727L221.13 112.818L219.839 112.809ZM235.759 112.909L235.604 111.818C236.483 111.594 237.086 111.173 237.413 110.555C237.74 109.936 237.904 109.176 237.904 108.273C237.904 107.406 237.74 106.645 237.413 105.991C237.086 105.336 236.483 104.897 235.604 104.673L235.759 103.636C237.086 103.861 238.031 104.412 238.595 105.291C239.165 106.17 239.45 107.164 239.45 108.273C239.45 109.412 239.165 110.412 238.595 111.273C238.031 112.139 237.086 112.685 235.759 112.909ZM242.126 112.909L241.971 111.818C242.85 111.594 243.453 111.173 243.78 110.555C244.108 109.936 244.271 109.176 244.271 108.273C244.271 107.406 244.108 106.645 243.78 105.991C243.453 105.336 242.85 104.897 241.971 104.673L242.126 103.636C243.453 103.861 244.399 104.412 244.962 105.291C245.532 106.17 245.817 107.164 245.817 108.273C245.817 109.412 245.532 110.412 244.962 111.273C244.399 112.139 243.453 112.685 242.126 112.909ZM4.19091 121.909C2.86364 121.685 1.91515 121.139 1.34545 120.273C0.781818 119.412 0.5 118.412 0.5 117.273C0.5 116.164 0.781818 115.17 1.34545 114.291C1.91515 113.412 2.86364 112.861 4.19091 112.636L4.34545 113.673C3.46667 113.897 2.86364 114.321 2.53636 114.945C2.20909 115.564 2.04545 116.339 2.04545 117.273C2.04545 118.206 2.20909 118.976 2.53636 119.582C2.86364 120.182 3.46667 120.594 4.34545 120.818L4.19091 121.909ZM9.72173 121.809L6.08537 112.718L7.37628 112.727L11.0126 121.818L9.72173 121.809ZM12.4526 121.818L16.0889 112.727H17.3798L13.7435 121.818H12.4526ZM33.3905 121.818V112.727H34.6541V121.818H33.3905ZM39.7577 121.818V112.727H41.0213V121.818H39.7577ZM51.1102 121.909L50.9557 120.818C51.8345 120.594 52.4375 120.173 52.7648 119.555C53.092 118.936 53.2557 118.176 53.2557 117.273C53.2557 116.406 53.092 115.645 52.7648 114.991C52.4375 114.336 51.8345 113.897 50.9557 113.673L51.1102 112.636C52.4375 112.861 53.383 113.412 53.9466 114.291C54.5163 115.17 54.8011 116.164 54.8011 117.273C54.8011 118.412 54.5163 119.412 53.9466 120.273C53.383 121.139 52.4375 121.685 51.1102 121.909ZM57.4774 121.909L57.3229 120.818C58.2017 120.594 58.8047 120.173 59.132 119.555C59.4592 118.936 59.6229 118.176 59.6229 117.273C59.6229 116.406 59.4592 115.645 59.132 114.991C58.8047 114.336 58.2017 113.897 57.3229 113.673L57.4774 112.636C58.8047 112.861 59.7501 113.412 60.3138 114.291C60.8835 115.17 61.1683 116.164 61.1683 117.273C61.1683 118.412 60.8835 119.412 60.3138 120.273C59.7501 121.139 58.8047 121.685 57.4774 121.909ZM63.3901 121.818L67.0264 112.727H68.3173L64.681 121.818H63.3901ZM80.5972 121.909C79.2699 121.685 78.3214 121.139 77.7517 120.273C77.1881 119.412 76.9063 118.412 76.9063 117.273C76.9063 116.164 77.1881 115.17 77.7517 114.291C78.3214 113.412 79.2699 112.861 80.5972 112.636L80.7517 113.673C79.8729 113.897 79.2699 114.321 78.9426 114.945C78.6153 115.564 78.4517 116.339 78.4517 117.273C78.4517 118.206 78.6153 118.976 78.9426 119.582C79.2699 120.182 79.8729 120.594 80.7517 120.818L80.5972 121.909ZM90.6952 121.818V112.727H91.9588V121.818H90.6952ZM101.448 117.464V116.109H106.666V117.464H101.448ZM107.815 117.464V116.109H113.033V117.464H107.815ZM120.549 117.464V116.109H125.767V117.464H120.549ZM133.284 117.464V116.109H138.502V117.464H133.284ZM139.651 117.464V116.109H144.869V117.464H139.651ZM154.367 121.818V112.727H155.631V121.818H154.367ZM173.469 121.818V112.727H174.732V121.818H173.469ZM184.821 121.909L184.667 120.818C185.545 120.594 186.148 120.173 186.476 119.555C186.803 118.936 186.967 118.176 186.967 117.273C186.967 116.406 186.803 115.645 186.476 114.991C186.148 114.336 185.545 113.897 184.667 113.673L184.821 112.636C186.148 112.861 187.094 113.412 187.658 114.291C188.227 115.17 188.512 116.164 188.512 117.273C188.512 118.412 188.227 119.412 187.658 120.273C187.094 121.139 186.148 121.685 184.821 121.909ZM191.188 121.909L191.034 120.818C191.913 120.594 192.516 120.173 192.843 119.555C193.17 118.936 193.334 118.176 193.334 117.273C193.334 116.406 193.17 115.645 192.843 114.991C192.516 114.336 191.913 113.897 191.034 113.673L191.188 112.636C192.516 112.861 193.461 113.412 194.025 114.291C194.594 115.17 194.879 116.164 194.879 117.273C194.879 118.412 194.594 119.412 194.025 120.273C193.461 121.139 192.516 121.685 191.188 121.909ZM203.923 121.909L203.768 120.818C204.647 120.594 205.25 120.173 205.577 119.555C205.905 118.936 206.068 118.176 206.068 117.273C206.068 116.406 205.905 115.645 205.577 114.991C205.25 114.336 204.647 113.897 203.768 113.673L203.923 112.636C205.25 112.861 206.195 113.412 206.759 114.291C207.329 115.17 207.614 116.164 207.614 117.273C207.614 118.412 207.329 119.412 206.759 120.273C206.195 121.139 205.25 121.685 203.923 121.909ZM226.206 121.809L222.57 112.718L223.861 112.727L227.497 121.818L226.206 121.809ZM233.41 121.909C232.082 121.685 231.134 121.139 230.564 120.273C230.001 119.412 229.719 118.412 229.719 117.273C229.719 116.164 230.001 115.17 230.564 114.291C231.134 113.412 232.082 112.861 233.41 112.636L233.564 113.673C232.685 113.897 232.082 114.321 231.755 114.945C231.428 115.564 231.264 116.339 231.264 117.273C231.264 118.206 231.428 118.976 231.755 119.582C232.082 120.182 232.685 120.594 233.564 120.818L233.41 121.909ZM239.777 121.909C238.45 121.685 237.501 121.139 236.931 120.273C236.368 119.412 236.086 118.412 236.086 117.273C236.086 116.164 236.368 115.17 236.931 114.291C237.501 113.412 238.45 112.861 239.777 112.636L239.931 113.673C239.053 113.897 238.45 114.321 238.122 114.945C237.795 115.564 237.631 116.339 237.631 117.273C237.631 118.206 237.795 118.976 238.122 119.582C238.45 120.182 239.053 120.594 239.931 120.818L239.777 121.909ZM10.5581 130.909C9.23082 130.685 8.28234 130.139 7.71264 129.273C7.14901 128.412 6.86719 127.412 6.86719 126.273C6.86719 125.164 7.14901 124.17 7.71264 123.291C8.28234 122.412 9.23082 121.861 10.5581 121.636L10.7126 122.673C9.83385 122.897 9.23082 123.321 8.90355 123.945C8.57628 124.564 8.41264 125.339 8.41264 126.273C8.41264 127.206 8.57628 127.976 8.90355 128.582C9.23082 129.182 9.83385 129.594 10.7126 129.818L10.5581 130.909ZM23.2925 130.909C21.9652 130.685 21.0167 130.139 20.447 129.273C19.8834 128.412 19.6016 127.412 19.6016 126.273C19.6016 125.164 19.8834 124.17 20.447 123.291C21.0167 122.412 21.9652 121.861 23.2925 121.636L23.447 122.673C22.5682 122.897 21.9652 123.321 21.6379 123.945C21.3107 124.564 21.147 125.339 21.147 126.273C21.147 127.206 21.3107 127.976 21.6379 128.582C21.9652 129.182 22.5682 129.594 23.447 129.818L23.2925 130.909ZM25.6415 130.909L25.4869 129.818C26.3657 129.594 26.9688 129.173 27.296 128.555C27.6233 127.936 27.7869 127.176 27.7869 126.273C27.7869 125.406 27.6233 124.645 27.296 123.991C26.9688 123.336 26.3657 122.897 25.4869 122.673L25.6415 121.636C26.9687 121.861 27.9142 122.412 28.4778 123.291C29.0475 124.17 29.3324 125.164 29.3324 126.273C29.3324 127.412 29.0475 128.412 28.4778 129.273C27.9142 130.139 26.9687 130.685 25.6415 130.909ZM33.3905 130.818V121.727H34.6541V130.818H33.3905ZM39.7577 130.818V121.727H41.0213V130.818H39.7577ZM48.7612 130.909C47.4339 130.685 46.4855 130.139 45.9158 129.273C45.3521 128.412 45.0703 127.412 45.0703 126.273C45.0703 125.164 45.3521 124.17 45.9158 123.291C46.4855 122.412 47.4339 121.861 48.7612 121.636L48.9158 122.673C48.037 122.897 47.4339 123.321 47.1067 123.945C46.7794 124.564 46.6158 125.339 46.6158 126.273C46.6158 127.206 46.7794 127.976 47.1067 128.582C47.4339 129.182 48.037 129.594 48.9158 129.818L48.7612 130.909ZM55.1284 130.909C53.8011 130.685 52.8527 130.139 52.283 129.273C51.7193 128.412 51.4375 127.412 51.4375 126.273C51.4375 125.164 51.7193 124.17 52.283 123.291C52.8527 122.412 53.8011 121.861 55.1284 121.636L55.283 122.673C54.4042 122.897 53.8011 123.321 53.4739 123.945C53.1466 124.564 52.983 125.339 52.983 126.273C52.983 127.206 53.1466 127.976 53.4739 128.582C53.8011 129.182 54.4042 129.594 55.283 129.818L55.1284 130.909ZM61.4956 130.909C60.1683 130.685 59.2198 130.139 58.6501 129.273C58.0865 128.412 57.8047 127.412 57.8047 126.273C57.8047 125.164 58.0865 124.17 58.6501 123.291C59.2198 122.412 60.1683 121.861 61.4956 121.636L61.6501 122.673C60.7714 122.897 60.1683 123.321 59.8411 123.945C59.5138 124.564 59.3501 125.339 59.3501 126.273C59.3501 127.206 59.5138 127.976 59.8411 128.582C60.1683 129.182 60.7714 129.594 61.6501 129.818L61.4956 130.909ZM74.23 130.909C72.9027 130.685 71.9542 130.139 71.3845 129.273C70.8209 128.412 70.5391 127.412 70.5391 126.273C70.5391 125.164 70.8209 124.17 71.3845 123.291C71.9542 122.412 72.9027 121.861 74.23 121.636L74.3845 122.673C73.5057 122.897 72.9027 123.321 72.5754 123.945C72.2482 124.564 72.0845 125.339 72.0845 126.273C72.0845 127.206 72.2482 127.976 72.5754 128.582C72.9027 129.182 73.5057 129.594 74.3845 129.818L74.23 130.909ZM76.579 130.909L76.4244 129.818C77.3032 129.594 77.9062 129.173 78.2335 128.555C78.5608 127.936 78.7244 127.176 78.7244 126.273C78.7244 125.406 78.5608 124.645 78.2335 123.991C77.9062 123.336 77.3032 122.897 76.4244 122.673L76.579 121.636C77.9062 121.861 78.8517 122.412 79.4153 123.291C79.985 124.17 80.2699 125.164 80.2699 126.273C80.2699 127.412 79.985 128.412 79.4153 129.273C78.8517 130.139 77.9062 130.685 76.579 130.909ZM82.9462 130.909L82.7916 129.818C83.6704 129.594 84.2734 129.173 84.6007 128.555C84.928 127.936 85.0916 127.176 85.0916 126.273C85.0916 125.406 84.928 124.645 84.6007 123.991C84.2734 123.336 83.6704 122.897 82.7916 122.673L82.9462 121.636C84.2734 121.861 85.2189 122.412 85.7825 123.291C86.3522 124.17 86.6371 125.164 86.6371 126.273C86.6371 127.412 86.3522 128.412 85.7825 129.273C85.2189 130.139 84.2734 130.685 82.9462 130.909ZM90.6952 130.818V121.727H91.9588V130.818H90.6952ZM154.367 130.818V121.727H155.631V130.818H154.367ZM173.469 130.818V121.727H174.732V130.818H173.469ZM182.472 130.909C181.145 130.685 180.196 130.139 179.627 129.273C179.063 128.412 178.781 127.412 178.781 126.273C178.781 125.164 179.063 124.17 179.627 123.291C180.196 122.412 181.145 121.861 182.472 121.636L182.627 122.673C181.748 122.897 181.145 123.321 180.818 123.945C180.49 124.564 180.327 125.339 180.327 126.273C180.327 127.206 180.49 127.976 180.818 128.582C181.145 129.182 181.748 129.594 182.627 129.818L182.472 130.909ZM195.207 130.909C193.879 130.685 192.931 130.139 192.361 129.273C191.797 128.412 191.516 127.412 191.516 126.273C191.516 125.164 191.797 124.17 192.361 123.291C192.931 122.412 193.879 121.861 195.207 121.636L195.361 122.673C194.482 122.897 193.879 123.321 193.552 123.945C193.225 124.564 193.061 125.339 193.061 126.273C193.061 127.206 193.225 127.976 193.552 128.582C193.879 129.182 194.482 129.594 195.361 129.818L195.207 130.909ZM201.574 130.909C200.246 130.685 199.298 130.139 198.728 129.273C198.165 128.412 197.883 127.412 197.883 126.273C197.883 125.164 198.165 124.17 198.728 123.291C199.298 122.412 200.246 121.861 201.574 121.636L201.728 122.673C200.849 122.897 200.246 123.321 199.919 123.945C199.592 124.564 199.428 125.339 199.428 126.273C199.428 127.206 199.592 127.976 199.919 128.582C200.246 129.182 200.849 129.594 201.728 129.818L201.574 130.909ZM214.308 130.909C212.981 130.685 212.032 130.139 211.463 129.273C210.899 128.412 210.617 127.412 210.617 126.273C210.617 125.164 210.899 124.17 211.463 123.291C212.032 122.412 212.981 121.861 214.308 121.636L214.463 122.673C213.584 122.897 212.981 123.321 212.654 123.945C212.326 124.564 212.163 125.339 212.163 126.273C212.163 127.206 212.326 127.976 212.654 128.582C212.981 129.182 213.584 129.594 214.463 129.818L214.308 130.909ZM216.657 130.909L216.503 129.818C217.381 129.594 217.984 129.173 218.312 128.555C218.639 127.936 218.803 127.176 218.803 126.273C218.803 125.406 218.639 124.645 218.312 123.991C217.984 123.336 217.381 122.897 216.503 122.673L216.657 121.636C217.984 121.861 218.93 122.412 219.493 123.291C220.063 124.17 220.348 125.164 220.348 126.273C220.348 127.412 220.063 128.412 219.493 129.273C218.93 130.139 217.984 130.685 216.657 130.909ZM229.391 130.909L229.237 129.818C230.116 129.594 230.719 129.173 231.046 128.555C231.373 127.936 231.537 127.176 231.537 126.273C231.537 125.406 231.373 124.645 231.046 123.991C230.719 123.336 230.116 122.897 229.237 122.673L229.391 121.636C230.719 121.861 231.664 122.412 232.228 123.291C232.798 124.17 233.082 125.164 233.082 126.273C233.082 127.412 232.798 128.412 232.228 129.273C231.664 130.139 230.719 130.685 229.391 130.909Z" fill="black"/>
</svg>
