<svg xmlns="http://www.w3.org/2000/svg" viewBox="0 0 169 170"><defs><style>.cls-1,.cls-2{fill-rule:evenodd;}.cls-1{opacity:0.4;}</style></defs><title>Asset 4</title><g id="Layer_2" data-name="Layer 2"><g id="Layer_1-2" data-name="Layer 1"><path class="cls-1" d="M68,12H78V3H88v9H98V22h10V33H88V82h49V63h10v9h10V82h9V92h-9v10H147v10H137V92H88v49h20v10H98v9H88v10H78V160H68v-9H59V141H78V92H29v20H19V102H10V92H0V82H10V72h9V63H29V82H78V33H59V22h9Z"/><path class="cls-2" d="M71,9H81V0H91V9h10V19h10V30H91V79h49V60h10v9h10V79h9V89h-9V99H150v10H140V89H91v49h20v10H101v9H91v10H81V157H71v-9H62V138H81V89H32v20H22V99H13V89H3V79H13V69h9V60H32V79H81V30H62V19h9Z"/></g></g></svg>