<svg xmlns="http://www.w3.org/2000/svg" viewBox="0 0 150.91 149.67"><defs><style>.cls-1,.cls-2{fill-rule:evenodd;}.cls-1{opacity:0.4;}</style></defs><title>Asset 5</title><g id="Layer_2" data-name="Layer 2"><g id="Layer_1-2" data-name="Layer 1"><path class="cls-1" d="M14.65,20.28l9-4.29L19.82,7.86l9-4.29,3.86,8.13,9-4.29,4.12,8.67L50.11,25l4.21,8.85,4.16,8.76,8.58-4.08,8.58-4.07,4.29,9,9.22-4.38L98,34.93l4.29,9,9-4.29,4.29,9,9-4.29L150.4,98.6l-9,4.29,4.29,9-9,4.3,3.86,8.13L87.19,149.67l-3.86-8.13-9,4.29-4.29-9-8.13,3.86-4.29-9-9,4.29-4.29-9-9,4.29-4.29-9-9,4.29L18,118.31,9,122.6l-9-19,9-4.29-4.29-9,18.07-8.59,4.29,9,9-4.29,4.29,9,8.13-3.86L14.65,20.28Zm101,28.42-9,4.29-4.29-9-8.85,4.2-9.22,4.38-4.29-9-8.58,4.08-8.58,4.07,4.29,9L58,65l-4.29-9-4.25-9-4.25-8.94L41,29.22l-4.25-8.94L32.71,11.7l-9,4.29,42.49,89.42-9,4.29-3.86-8.13-8.13,3.86L40.42,95.5l-9,4.29-4.29-9L9,99.34l9,19,9-4.29,3.86,8.13,9-4.3,4.29,9,9-4.3,4.29,9,8.13-3.87,4.29,9,9-4.3,4.29,9,53.29-25.32-4.29-9,9-4.29L115.61,48.7Z"/><path class="cls-2" d="M15.16,16.71l9-4.29L20.33,4.29l9-4.29,3.86,8.13,9-4.29,4.12,8.67,4.25,8.94,4.21,8.85L59,39.06,67.58,35l8.58-4.08,4.29,9,9.21-4.38,8.86-4.2,4.29,9,9-4.29,4.29,9,9-4.29L150.91,95l-9,4.29,4.29,9-9,4.29,3.86,8.13L87.71,146.1,83.85,138l-9,4.29-4.29-9-8.13,3.86-4.29-9-9,4.29-4.29-9-9,4.29-4.29-9-9,4.29-3.87-8.13-9,4.29-9-19,9-4.29-4.29-9,18.06-8.58,4.3,9,9-4.29,4.29,9,8.13-3.86L15.16,16.71Zm101,28.42-9,4.29-4.29-9L94,44.6,84.74,49l-4.29-9L71.87,44,63.29,48.1l4.29,9-9,4.29-4.29-9L50,43.45l-4.25-9-4.2-8.85-4.25-8.94L33.23,8.13l-9,4.29,42.48,89.42-9,4.29L53.79,98l-8.13,3.87-4.72-9.94-9,4.29-4.29-9L9.55,95.77l9,19,9-4.29,3.86,8.13,9-4.29,4.29,9,9-4.29,4.3,9,8.13-3.86,4.29,9,9-4.29,4.29,9,53.29-25.32-4.29-9,9-4.3L116.13,45.13Z"/></g></g></svg>