<svg xmlns="http://www.w3.org/2000/svg" viewBox="0 0 297.67 517.79"><title>Asset 1</title><g id="Layer_2" data-name="Layer 2"><g id="Layer_1-2" data-name="Layer 1"><path d="M169.89,6.81c-.13,5.92-2.5,169-4.38,250.81-1.24,53.65-2.27,98.33-2.33,100.9a31,31,0,0,1-.41,3.47c-44.56.46-88.82-4.21-133.37.52,2,2.41,3.92,4.82,6.46,5.85,3.79,1.55,8,2.21,12,3.11,14.19,3.18,28.39,6.29,42.59,9.43-.07.49-.13,1-.2,1.46-4.42.6-8.83,1.33-13.27,1.77-15.25,1.54-30.21,3.75-43.81,11.76-6.55,3.87-13.78,6.57-20.7,9.82q-6.24,3-12.47,6c3.52,6.71,8,8.57,15.58,6.6,11.72-3.06,23.33-6.55,35.15-9.13,6.9-1.52,14.12-1.62,21.19-2.36a133.78,133.78,0,0,1-18.63,13.07c-3.06,1.81-4.23,4.12-4.73,7.54-2.39,16.12-5.05,32.2-7.59,48.3-1,6.3-1.9,12.62-2.89,19.26,8.1-1.13,12-5.9,14.3-12.43Q60.13,460.7,68,438.87c.48-1.36,1-3.17,2.11-3.78,10.45-5.94,21-11.67,31.56-17.45-4.15,5.61-9.06,10.28-13.41,15.42a15.12,15.12,0,0,0-3.65,8.13c-1,15.77-1.41,31.58-2.3,47.36-.2,3.46,1,5.47,3.65,7.39,10,7.21,20,14.69,30.17,21.85a5.11,5.11,0,0,1,.76-.23,8.68,8.68,0,0,0,1-.27,12.15,12.15,0,0,1,.42-1.2,16.29,16.29,0,0,1,1.25-1.71,32.1,32.1,0,0,0,.46-4.88v-.12c-3.16-7.82-9.28-14.32-17.31-19.05-2.58-1.52-3.26-3-2.61-5.94,2.56-11.51,4.75-23.11,7.33-34.62.36-1.62,1.82-3.72,3.28-4.26,20.67-7.75,41.42-15.27,62.16-22.82a4.69,4.69,0,0,1,1.4,0c3,13.46,6.14,27.05,9.21,40.64a10.57,10.57,0,0,0,.32,1.46c3.45,9.18,3.17,16.93-4.28,25-4.8,5.25-9.48,21.36-9.55,21.35.26.34.74,1.18.77,1.21.23.17,1.42.8,1.5.86a4.37,4.37,0,0,1,.52.12h.42c.08,0,1-.17,1.29-.19a6.92,6.92,0,0,0,1.49-.52c10.5-6.41,20.6-13.44,31-20,3.2-2,4.38-4.19,4.27-8q-1.64-55.37-2.82-110.75a67.6,67.6,0,0,1,2-16.7C218.08,324.72,289.77,32.47,297.67,0Z"/></g></g></svg>