<svg xmlns="http://www.w3.org/2000/svg" viewBox="0 0 47.5 47.5"><defs><style>.cls-1{fill:#1d1d1b;}</style></defs><title>Asset 3</title><g id="Layer_2" data-name="Layer 2"><g id="Layer_1-2" data-name="Layer 1"><path class="cls-1" d="M47.5,22.5V25H45v2.5H42.5V30H40v2.5H37.5V25H25V37.5h7.5V40H30v2.5H27.5V45H25v2.5H22.5V45H20V42.5H17.5V40H15V37.5h7.5V25H10v7.5H7.5V30H5V27.5H2.5V25H0V22.5H2.5V20H5V17.5H7.5V15H10v7.5H22.5V10H15V7.5h2.5V5H20V2.5h2.5V0H25V2.5h2.5V5H30V7.5h2.5V10H25V22.5H37.5V15H40v2.5h2.5V20H45v2.5Z"/></g></g></svg>