<svg width="80px" height="80px" xmlns="http://www.w3.org/2000/svg" viewBox="0 0 94 100"><defs><style>.cls-1{fill:#fff;}</style></defs><rect class="cls-1" x="31.33" y="6.27" width="12.53" height="81.2"/><path d="M31.34,0H43.87V6.27H31.33Q31.33,3.14,31.34,0ZM25.07,6.27h6.26q0,25,0,50H25.07V50H18.8V43.73h6.27Zm18.8,0h6.26q0,9.33,0,18.66H75.2V31.2H68.94c0,4.18,0,8.36,0,12.53H62.67V31.2H50.13c0,4.18,0,8.36,0,12.53H43.87ZM6.27,37.47H18.8v6.26H6.27Zm81.46,0H94V68.8H87.73ZM0,43.73H6.27V56.27H0ZM6.27,56.27h6.26v6.26H6.27ZM81.47,68.8h6.26V81.2H81.47ZM25.07,81.2h6.26v6.27H25.07Zm50.13,0h6.27V100H68.93q0-3.14,0-6.27H75.2ZM62.67,87.47h6.26q0,3.12,0,6.26H62.67ZM75.2,31.2H87.73v6.27H81.47c0,2.09,0,4.17,0,6.26H75.2ZM43.87,56.27h6.26V81.2H43.87Zm12.53,0h6.27V81.2H56.4Zm12.54,0H75.2V81.2H68.94Q68.93,68.74,68.94,56.27ZM12.53,62.53H18.8v12.4h6.27V81.2H18.8V75.07H12.53Zm18.8,24.94H37.6v6.26H62.67V100H31.33Z"/><rect class="cls-1" x="6.27" y="43.73" width="12.53" height="12.53"/><rect class="cls-1" x="12.53" y="50" width="12.53" height="12.53"/><rect class="cls-1" x="18.8" y="56.27" width="14.37" height="18.66"/><rect class="cls-1" x="25.07" y="71.87" width="9.33" height="9.33"/><rect class="cls-1" x="37.6" y="81.2" width="25.06" height="12.53"/><rect class="cls-1" x="40.53" y="43.74" width="47.07" height="12.53"/><rect class="cls-1" x="49.9" y="31.2" width="12.77" height="15.67"/><rect class="cls-1" x="68.94" y="31.2" width="6.26" height="15.67"/><rect class="cls-1" x="81.47" y="37.47" width="6.27" height="31.33"/><rect class="cls-1" x="75.2" y="53.1" width="6.27" height="28.1"/><rect class="cls-1" x="62.67" y="81.2" width="12.54" height="6.27"/><rect class="cls-1" x="68.94" y="84.33" width="6.27" height="9.4"/><rect class="cls-1" x="62.67" y="53.1" width="6.27" height="31.23"/><rect class="cls-1" x="49.9" y="50" width="6.39" height="34.33"/></svg>